<?xml version="1.0" standalone="no"?>
<!DOCTYPE svg PUBLIC "-//W3C//DTD SVG 20010904//EN"
 "http://www.w3.org/TR/2001/REC-SVG-20010904/DTD/svg10.dtd">
<svg version="1.0" xmlns="http://www.w3.org/2000/svg"
 width="700.000000pt" height="700.000000pt" viewBox="0 0 700.000000 700.000000"
 preserveAspectRatio="xMidYMid meet">
<metadata>
Created by potrace 1.14, written by Peter Selinger 2001-2017
</metadata>
<g transform="translate(0.000000,700.000000) scale(0.100000,-0.100000)"
fill="#000000" stroke="none">
<path d="M715 6984 c-353 -69 -630 -349 -701 -709 -11 -59 -13 -514 -13 -2775
0 -1488 4 -2725 9 -2750 16 -89 21 -106 47 -175 83 -219 237 -388 448 -489 52
-25 155 -59 215 -73 49 -11 5453 -15 5520 -4 246 40 443 157 587 351 68 91
137 245 159 355 11 56 15 5465 4 5540 -42 278 -235 536 -496 659 -76 37 -108
47 -224 71 -97 21 -5450 20 -5555 -1z"/>
</g>
</svg>
